<svg width="30" height="32" viewBox="0 0 30 32" fill="none" xmlns="http://www.w3.org/2000/svg">
<g clip-path="url(#clip0_12506_47440)">
<path d="M12.9428 24.6319C12.6989 24.6319 12.5166 24.6319 12.3343 24.6319C9.57693 24.6319 6.82045 24.6347 4.06303 24.63C2.7862 24.6281 1.90944 24.0603 1.55798 22.9842C1.45797 22.6781 1.42432 22.337 1.42338 22.0111C1.41497 17.0671 1.41497 12.1241 1.41964 7.18011C1.42151 5.56834 2.3824 4.60184 3.98731 4.6009C9.03386 4.59617 14.0813 4.59523 19.1279 4.60657C19.4775 4.60751 19.6924 4.51681 19.8831 4.20787C20.3617 3.43505 20.8786 2.68585 21.3852 1.93098C22.2106 0.701842 23.6042 0.311653 24.8035 0.967321C25.9915 1.61732 26.4383 2.9844 25.9055 4.34203C25.8831 4.39872 25.8607 4.4554 25.8223 4.55082C25.9392 4.56972 26.0373 4.59334 26.1373 4.59995C27.588 4.69726 28.4835 5.63636 28.491 7.11114C28.5031 9.53542 28.4947 11.9606 28.4947 14.3849C28.4947 16.8885 28.4956 19.3912 28.4947 21.8949C28.4938 23.6758 27.5497 24.629 25.7775 24.6309C23.0518 24.6337 20.3253 24.6319 17.5996 24.6319C17.4155 24.6319 17.2313 24.6319 16.9715 24.6319C17.1949 25.5889 17.3958 26.4864 17.623 27.3755C17.6445 27.4595 17.8314 27.5427 17.9473 27.5502C18.2885 27.5739 18.6325 27.5569 18.9746 27.5597C20.1635 27.5691 20.8534 28.2286 20.9338 29.4303C20.9384 29.5059 20.9468 29.5805 20.959 29.7119C21.503 29.7119 22.0283 29.7081 22.5536 29.7128C23.0696 29.7175 23.3407 29.9311 23.335 30.3127C23.3294 30.6925 23.0574 30.8966 22.5368 30.8966C17.4903 30.8976 12.4428 30.8976 7.39623 30.8976C7.31865 30.8976 7.24013 30.9013 7.16255 30.8947C6.79614 30.8626 6.57555 30.6576 6.58303 30.2872C6.58957 29.9424 6.80455 29.7298 7.15134 29.7213C7.74021 29.7062 8.32908 29.7175 8.94319 29.7175C8.95908 29.5513 8.97123 29.4303 8.98151 29.3103C9.07592 28.2569 9.78163 27.5833 10.8229 27.5606C11.1968 27.5531 11.5716 27.5758 11.9436 27.5493C12.0698 27.5399 12.1951 27.4321 12.3072 27.349C12.3446 27.3207 12.3362 27.2309 12.3512 27.1704C12.5419 26.3485 12.7335 25.5256 12.9428 24.6319ZM2.62263 18.2745C3.16383 18.2745 3.64614 18.2632 4.12752 18.2773C4.58834 18.2906 4.89493 18.5523 4.84632 18.9018C4.79024 19.309 4.52571 19.481 4.12191 19.4715C3.62838 19.4602 3.13485 19.4687 2.59739 19.4687C2.59739 20.3256 2.59645 21.1258 2.59739 21.9251C2.59832 23.0229 3.00119 23.4282 4.092 23.4282C11.3361 23.4282 18.5792 23.4282 25.8233 23.4282C25.9635 23.4282 26.1046 23.4348 26.2439 23.4216C26.7664 23.3734 27.2627 22.9596 27.2852 22.4362C27.3263 21.4659 27.2973 20.4938 27.2973 19.4687C27.0805 19.4687 26.8982 19.4687 26.7159 19.4687C20.9366 19.4687 15.1572 19.4687 9.37783 19.4687C9.23763 19.4687 9.09742 19.4734 8.95721 19.4659C8.58613 19.4479 8.36647 19.2297 8.35712 18.8744C8.34777 18.5305 8.57211 18.3293 8.91234 18.2896C9.08153 18.2698 9.25445 18.2726 9.4255 18.2726C15.174 18.2717 20.9216 18.2717 26.6701 18.2717C26.8673 18.2717 27.0646 18.2717 27.3132 18.2717C27.3132 18.0459 27.3132 17.8768 27.3132 17.7077C27.3132 14.2281 27.3141 10.7485 27.3132 7.26892C27.3132 6.20322 26.8935 5.7743 25.8541 5.77241C25.698 5.77241 25.5391 5.79414 25.3877 5.76768C24.9802 5.69777 24.7353 5.89428 24.4894 6.20133C22.9509 8.1211 21.4002 10.0314 19.8401 11.9332C19.6018 12.2233 19.5233 12.4793 19.599 12.8667C19.9458 14.6457 18.9222 16.1119 17.1622 16.3727C16.7369 16.436 16.2938 16.3982 15.861 16.3774C15.0151 16.3359 14.2243 16.4313 13.5439 17.0255C13.1223 17.394 12.6522 17.2145 12.5372 16.6505C12.3904 15.9287 12.2297 15.2012 12.1829 14.4699C12.0165 11.8595 13.3139 10.0645 15.8704 9.86136C16.033 9.84813 16.2293 9.68941 16.3293 9.54298C17.0893 8.42909 17.8296 7.30199 18.5727 6.17677C18.6456 6.06623 18.6979 5.94247 18.7886 5.77146C18.5876 5.77146 18.4502 5.77146 18.3137 5.77146C13.5467 5.77146 8.77961 5.77052 4.01349 5.77241C3.03577 5.77241 2.60113 6.21834 2.60113 7.21979C2.60019 10.7305 2.60019 14.2422 2.60113 17.753C2.59926 17.9079 2.61234 18.0619 2.62263 18.2745ZM20.7403 8.96667C22.0844 7.30671 23.4005 5.69399 24.6997 4.06805C24.9876 3.70715 25.0559 3.27255 24.9007 2.82001C24.7166 2.28149 24.3492 1.95082 23.7912 1.86768C23.192 1.77888 22.7293 2.02074 22.3957 2.52335C21.3142 4.15591 20.2337 5.78941 19.155 7.42481C19.1064 7.4985 19.083 7.58825 19.0391 7.6884C19.6037 8.11354 20.1514 8.52452 20.7403 8.96667ZM13.4747 15.4449C14.2898 15.3637 15.0525 15.2787 15.8171 15.2163C16.1256 15.1917 16.4406 15.1984 16.749 15.2248C17.8436 15.3164 18.8278 14.298 18.3951 12.8053C17.6239 12.2214 16.9285 11.3966 16.0611 11.1151C14.9656 10.7589 13.7504 11.7972 13.471 12.9687C13.2663 13.8256 13.3177 14.6797 13.4747 15.4449ZM19.7027 29.6883C19.7476 28.9287 19.5859 28.7425 18.9101 28.7416C16.2648 28.7397 13.6196 28.7388 10.9743 28.7416C10.2882 28.7425 10.0835 29.0184 10.2602 29.6873C13.3962 29.6883 16.534 29.6883 19.7027 29.6883ZM15.7638 24.6678C15.1852 24.6678 14.6618 24.6678 14.144 24.6678C13.9187 25.6295 13.7009 26.5563 13.4766 27.5134C14.4823 27.5134 15.4442 27.5134 16.4359 27.5134C16.205 26.5356 15.9863 25.6087 15.7638 24.6678ZM19.9916 9.88309C19.4242 9.457 18.9035 9.06681 18.3455 8.64923C17.9707 9.21514 17.6127 9.75649 17.2341 10.3271C17.7473 10.7126 18.2277 11.0726 18.726 11.4467C19.1512 10.9214 19.5522 10.4263 19.9916 9.88309Z" fill="white"/>
<path d="M6.58527 19.4641C6.27868 19.4556 5.99733 19.1524 6.01229 18.8453C6.02724 18.5298 6.32168 18.2643 6.64135 18.2955C6.9844 18.3295 7.16854 18.5458 7.18816 18.8803C7.20499 19.1902 6.89373 19.4726 6.58527 19.4641Z" fill="white"/>
</g>
<defs>
<clipPath id="clip0_12506_47440">
<rect width="30" height="31" fill="white" transform="translate(0 0.5)"/>
</clipPath>
</defs>
</svg>
